<!DOCTYPE svg PUBLIC "-//W3C//DTD SVG 20010904//EN" "http://www.w3.org/TR/2001/REC-SVG-20010904/DTD/svg10.dtd">
<svg version="1.0" xmlns="http://www.w3.org/2000/svg" width="512px" height="512px" viewBox="0 0 5120 5120" preserveAspectRatio="xMidYMid meet">
<g id="layer101" fill="#000000" stroke="none">
<path d="M33 5065 c-24 -17 -36 -55 -25 -83 4 -11 264 -317 579 -680 617 -712 621 -715 760 -764 94 -32 259 -32 348 -1 56 21 61 21 76 5 19 -19 539 -751 539 -758 0 -2 -335 -4 -744 -4 -457 0 -764 -4 -796 -10 -78 -15 -153 -52 -209 -105 -86 -81 -131 -183 -131 -300 0 -197 138 -364 335 -405 54 -11 150 -9 186 5 10 4 24 -17 49 -67 38 -79 106 -158 136 -158 11 0 29 6 39 14 16 12 23 10 60 -18 23 -18 56 -38 73 -45 25 -10 32 -20 32 -40 0 -66 58 -91 207 -91 108 0 184 18 282 67 73 37 173 123 217 186 l20 29 65 -35 c88 -49 158 -67 254 -67 147 0 253 42 361 142 109 103 172 260 160 404 l-6 71 98 6 c112 6 209 33 300 84 42 23 67 32 74 25 5 -5 62 -83 127 -173 122 -171 151 -197 191 -171 17 10 24 4 65 -54 l47 -66 -18 -33 c-23 -43 -21 -47 90 -202 163 -228 307 -333 519 -378 l27 -5 0 -259 0 -259 -596 -148 c-396 -99 -602 -155 -615 -167 -28 -26 -25 -81 6 -105 15 -12 126 -45 292 -86 147 -37 413 -103 590 -148 l321 -80 7 -34 c11 -60 79 -84 123 -44 l22 21 0 653 0 653 63 13 c82 16 167 51 241 100 67 43 179 153 220 215 l26 40 0 1633 0 1634 -29 29 -29 29 -2504 0 c-2192 0 -2506 -2 -2525 -15z"/>
</g>
<g id="layer102" fill="#ab7c62" stroke="none">
<path d="M267 4907 c115 -144 997 -1147 1032 -1173 68 -50 132 -69 226 -68 95 1 167 25 237 82 26 20 125 127 219 237 95 110 177 203 183 207 6 4 26 8 44 8 42 0 72 -30 72 -73 0 -34 -27 -67 -377 -468 -12 -14 24 -69 314 -475 210 -296 348 -480 387 -517 119 -114 295 -173 442 -149 134 22 269 112 382 255 49 62 1462 2141 1462 2151 0 4 -424 6 -943 6 l-943 0 -275 -317 -274 -318 -44 0 c-36 0 -47 5 -64 27 -13 18 -18 34 -13 52 3 14 107 143 231 285 124 143 225 263 225 266 0 3 -572 5 -1271 5 l-1270 0 18 -23z"/>
<path d="M4774 4472 c-99 -147 -414 -611 -699 -1032 -285 -421 -535 -785 -555 -810 l-38 -45 129 -180 c132 -183 144 -210 115 -250 -13 -18 -9 -27 33 -86 40 -57 49 -65 66 -57 41 18 70 -7 173 -149 105 -146 141 -183 230 -241 145 -92 328 -107 484 -38 69 31 166 104 212 160 l36 44 -2 1475 -3 1475 -181 -266z"/>
<path d="M790 2619 c-101 -20 -190 -113 -206 -217 -16 -105 40 -214 136 -266 70 -38 164 -41 228 -8 75 39 133 21 147 -45 14 -61 40 -121 81 -184 46 -67 51 -87 34 -119 -9 -17 -4 -24 29 -48 22 -16 53 -35 70 -41 26 -11 32 -10 51 9 20 20 27 21 128 14 169 -10 267 23 379 128 29 28 67 79 88 118 56 108 87 115 171 39 31 -28 82 -63 113 -78 48 -22 69 -26 151 -26 85 0 101 3 154 29 79 39 140 102 178 183 26 55 31 79 32 142 1 119 -11 142 -100 191 -42 23 -108 73 -151 113 l-76 72 -796 1 c-438 1 -816 -2 -841 -7z"/>
</g>
<g id="layer103" fill="#ff6465" stroke="none">
<path d="M4000 611 c-212 -54 -391 -100 -399 -102 -12 -4 788 -210 812 -209 4 0 7 92 7 205 0 189 -1 205 -17 204 -10 0 -191 -45 -403 -98z"/>
</g>
<g id="layer104" fill="#e0a381" stroke="none">
<path d="M266 4908 c115 -145 998 -1148 1033 -1174 25 -18 68 -41 94 -50 47 -16 167 -29 167 -18 0 4 -11 15 -25 26 -30 23 -1053 1202 -1061 1221 -3 10 -35 14 -116 16 l-111 2 19 -23z"/>
</g>
<g id="layer105" fill="#7ed2f0" stroke="none">
<path d="M796 2620 c-105 -18 -196 -112 -212 -218 -16 -105 40 -214 136 -266 70 -38 164 -41 228 -8 75 39 133 21 147 -45 14 -61 40 -121 81 -184 46 -67 51 -87 34 -119 -9 -17 -4 -24 29 -48 22 -16 53 -35 70 -41 26 -11 32 -10 51 9 20 20 27 21 128 14 169 -10 267 23 379 128 29 28 67 79 88 118 56 108 87 115 171 39 31 -28 82 -63 113 -78 48 -22 69 -26 151 -26 85 0 101 3 154 29 79 39 140 102 178 183 26 55 31 79 32 142 1 119 -11 142 -100 191 -42 23 -108 73 -151 113 l-76 72 -791 1 c-435 1 -813 -2 -840 -6z"/>
</g>


</svg>